0
SECTION
2
HEADER
9
$INSUNITS
70
4
9
$ACADVER
1
AC1014
9
$HANDSEED
5
FFFF
0
ENDSEC
0
SECTION
2
TABLES
0
TABLE
2
VPORT
5
8
100
AcDbSymbolTable
0
ENDTAB
0
TABLE
2
LTYPE
5
5
100
AcDbSymbolTable
0
LTYPE
5
14
100
AcDbSymbolTableRecord
100
AcDbLinetypeTableRecord
2
BYBLOCK
70
0
0
LTYPE
5
15
100
AcDbSymbolTableRecord
100
AcDbLinetypeTableRecord
2
BYLAYER
70
0
0
ENDTAB
0
TABLE
2
LAYER
5
2
100
AcDbSymbolTable
70
2
0
LAYER
5
50
100
AcDbSymbolTableRecord
100
AcDbLayerTableRecord
2
0
70
0
6
CONTINUOUS
0
ENDTAB
0
TABLE
2
STYLE
5
3
100
AcDbSymbolTable
70
1
0
STYLE
5
11
100
AcDbSymbolTableRecord
100
AcDbTextStyleTableRecord
2
STANDARD
70
0
0
ENDTAB
0
TABLE
2
VIEW
5
6
100
AcDbSymbolTable
70
0
0
ENDTAB
0
TABLE
2
UCS
5
7
100
AcDbSymbolTable
70
0
0
ENDTAB
0
TABLE
2
APPID
5
9
100
AcDbSymbolTable
70
2
0
APPID
5
12
100
AcDbSymbolTableRecord
100
AcDbRegAppTableRecord
2
ACAD
70
0
0
ENDTAB
0
TABLE
2
DIMSTYLE
5
A
100
AcDbSymbolTable
70
1
0
ENDTAB
0
TABLE
2
BLOCK_RECORD
5
1
100
AcDbSymbolTable
70
1
0
BLOCK_RECORD
5
1F
100
AcDbSymbolTableRecord
100
AcDbBlockTableRecord
2
*MODEL_SPACE
0
BLOCK_RECORD
5
1B
100
AcDbSymbolTableRecord
100
AcDbBlockTableRecord
2
*PAPER_SPACE
0
ENDTAB
0
ENDSEC
0
SECTION
2
BLOCKS
0
BLOCK
5
20
100
AcDbEntity
100
AcDbBlockBegin
2
*MODEL_SPACE
0
ENDBLK
5
21
100
AcDbEntity
100
AcDbBlockEnd
0
BLOCK
5
1C
100
AcDbEntity
100
AcDbBlockBegin
2
*PAPER_SPACE
0
ENDBLK
5
1D
100
AcDbEntity
100
AcDbBlockEnd
0
ENDSEC
0
SECTION
2
ENTITIES
0
LWPOLYLINE
5
100
100
AcDbEntity
8
0
100
AcDbPolyline
90
8
70
1
43
0.0
10
-41.000000000000099
20
156.59999999999999
10
-36.000000000000099
20
164.60000000000002
10
36.000000000000099
20
164.60000000000002
10
41.000000000000092
20
156.59999999999999
10
41.000000000000007
20
8
10
36.000000000000007
20
0
10
-36.000000000000007
20
0
10
-41.000000000000007
20
8.0000000000000071
0
LWPOLYLINE
5
101
100
AcDbEntity
8
0
100
AcDbPolyline
90
4
70
1
43
0.0
10
35.000000000000107
20
143.09999999999999
42
-0.99999999999999989
10
37.000000000000107
20
143.09999999999999
10
37.000000000000107
20
138.09999999999999
42
-0.99999999999999989
10
35.000000000000099
20
138.09999999999999
0
LWPOLYLINE
5
102
100
AcDbEntity
8
0
100
AcDbPolyline
90
4
70
1
43
0.0
10
-37.000000000005265
20
26.499999999997893
42
-0.99999999999999989
10
-35.000000000005265
20
26.500000000002114
10
-34.999999999994728
20
21.500000000002121
42
-0.99999999999999989
10
-36.999999999994735
20
21.499999999997886
0
LWPOLYLINE
5
103
100
AcDbEntity
8
0
100
AcDbPolyline
90
4
70
1
43
0.0
10
-37.000000000000014
20
48.5
42
-0.99999999999999989
10
-35.000000000000014
20
48.5
10
-35.000000000000014
20
43.499999999999986
42
-0.99999999999999989
10
-37.000000000000014
20
43.500000000000007
0
LWPOLYLINE
5
104
100
AcDbEntity
8
0
100
AcDbPolyline
90
4
70
1
43
0.0
10
-18.000000000000163
20
143.10000000000002
42
-0.99999999999999989
10
-16.000000000000114
20
143.10000000000002
10
-16.00000000000011
20
138.10000000000002
42
-0.99999999999999989
10
-18.00000000000011
20
138.10000000000002
0
LWPOLYLINE
5
105
100
AcDbEntity
8
0
100
AcDbPolyline
90
4
70
1
43
0.0
10
16.000000000000011
20
48.5
42
-0.99999999999999989
10
18.000000000000004
20
48.5
10
18.000000000000004
20
43.500000000000007
42
-0.99999999999999989
10
16
20
43.499999999999986
0
LWPOLYLINE
5
106
100
AcDbEntity
8
0
100
AcDbPolyline
90
4
70
1
43
0.0
10
16.000000000000092
20
143.10000000000002
42
-0.99999999999999989
10
18.000000000000146
20
143.10000000000002
10
18.000000000000092
20
138.10000000000002
42
-0.99999999999999989
10
16.000000000000092
20
138.10000000000002
0
LWPOLYLINE
5
107
100
AcDbEntity
8
0
100
AcDbPolyline
90
4
70
1
43
0.0
10
16.000000000000004
20
26.500000000000004
42
-0.99999999999999989
10
18
20
26.500000000000004
10
18
20
21.500000000000004
42
-0.99999999999999989
10
16.000000000000004
20
21.500000000000004
0
LWPOLYLINE
5
108
100
AcDbEntity
8
0
100
AcDbPolyline
90
4
70
1
43
0.0
10
16.000000000000092
20
121.10000000000001
42
-0.99999999999999989
10
18.000000000000146
20
121.10000000000001
10
18.000000000000089
20
116.10000000000001
42
-0.99999999999999989
10
16.000000000000096
20
116.10000000000001
0
LWPOLYLINE
5
109
100
AcDbEntity
8
0
100
AcDbPolyline
90
4
70
1
43
0.0
10
35.000000000000114
20
121.10000000000001
42
-0.99999999999999989
10
37.000000000000107
20
121.10000000000001
10
37.000000000000107
20
116.10000000000001
42
-0.99999999999999989
10
35.000000000000099
20
116.10000000000001
0
LWPOLYLINE
5
110
100
AcDbEntity
8
0
100
AcDbPolyline
90
4
70
1
43
0.0
10
-37.000000000000128
20
121.10000000000001
42
-0.99999999999999989
10
-35.000000000000128
20
121.10000000000001
10
-35.000000000000121
20
116.10000000000002
42
-0.99999999999999989
10
-37.000000000000121
20
116.09999999999999
0
LWPOLYLINE
5
111
100
AcDbEntity
8
0
100
AcDbPolyline
90
4
70
1
43
0.0
10
-18.000000000000011
20
48.5
42
-0.99999999999999989
10
-16.000000000000014
20
48.500000000000014
10
-16.000000000000007
20
43.500000000000007
42
-0.99999999999999989
10
-18.000000000000011
20
43.499999999999986
0
LWPOLYLINE
5
112
100
AcDbEntity
8
0
100
AcDbPolyline
90
4
70
1
43
0.0
10
-18.000000000000007
20
26.500000000000014
42
-0.99999999999999989
10
-16
20
26.499999999999993
10
-16.000000000000004
20
21.499999999999993
42
-0.99999999999999989
10
-18.000000000000004
20
21.500000000000014
0
LWPOLYLINE
5
113
100
AcDbEntity
8
0
100
AcDbPolyline
90
4
70
1
43
0.0
10
-37.000000000000128
20
143.09999999999999
42
-0.99999999999999989
10
-35.000000000000128
20
143.09999999999999
10
-35.000000000000121
20
138.09999999999999
42
-0.99999999999999989
10
-37.000000000000121
20
138.09999999999999
0
LWPOLYLINE
5
114
100
AcDbEntity
8
0
100
AcDbPolyline
90
4
70
1
43
0.0
10
37
20
43.5
42
-0.99999999999999989
10
35.000000000000014
20
43.5
10
35.000000000000007
20
48.5
42
-0.99999999999999989
10
37.000000000000007
20
48.5
0
LWPOLYLINE
5
115
100
AcDbEntity
8
0
100
AcDbPolyline
90
4
70
1
43
0.0
10
36.999999999994728
20
21.499999999997893
42
-0.99999999999999989
10
34.999999999994728
20
21.500000000002114
10
35.000000000005265
20
26.500000000002114
42
-0.99999999999999989
10
37.000000000005265
20
26.499999999997893
0
LWPOLYLINE
5
116
100
AcDbEntity
8
0
100
AcDbPolyline
90
4
70
1
43
0.0
10
-18.000000000000167
20
121.10000000000001
42
-0.99999999999999989
10
-16.000000000000107
20
121.10000000000001
10
-16.000000000000114
20
116.10000000000001
42
-0.99999999999999989
10
-18.000000000000107
20
116.10000000000001
0
CIRCLE
5
117
100
AcDbEntity
8
0
100
AcDbCircle
10
-8.8899999999999988
20
51.719999999999985
30
0
40
1.27
210
0
220
-0
230
1
0
CIRCLE
5
118
100
AcDbEntity
8
0
100
AcDbCircle
10
8.8899999999999988
20
6.0000000000000009
30
0
40
1.2700000000000011
210
0
220
-0
230
1
0
CIRCLE
5
119
100
AcDbEntity
8
0
100
AcDbCircle
10
-8.8899999999999988
20
6.0000000000000009
30
0
40
1.27
210
0
220
-0
230
1
0
CIRCLE
5
120
100
AcDbEntity
8
0
100
AcDbCircle
10
8.8899999999999988
20
51.719999999999985
30
0
40
1.2700000000000011
210
0
220
-0
230
1
0
CIRCLE
5
121
100
AcDbEntity
8
0
100
AcDbCircle
10
-30.500000000000007
20
6.0000000000000009
30
0
40
1.749999999999998
210
0
220
-0
230
1
0
CIRCLE
5
122
100
AcDbEntity
8
0
100
AcDbCircle
10
30.500000000000007
20
6.0000000000000009
30
0
40
1.749999999999998
210
0
220
-0
230
1
0
CIRCLE
5
123
100
AcDbEntity
8
0
100
AcDbCircle
10
-30.500000000000007
20
158.59999999999999
30
0
40
1.749999999999998
210
0
220
-0
230
1
0
CIRCLE
5
124
100
AcDbEntity
8
0
100
AcDbCircle
10
30.500000000000007
20
158.59999999999999
30
0
40
1.749999999999998
210
0
220
-0
230
1
0
CIRCLE
5
125
100
AcDbEntity
8
0
100
AcDbCircle
10
-14.000000000000066
20
159.60000000000002
30
0
40
1.3000000000000123
210
0
220
-0
230
1
0
CIRCLE
5
126
100
AcDbEntity
8
0
100
AcDbCircle
10
14.000000000000066
20
159.60000000000002
30
0
40
1.3000000000000123
210
0
220
-0
230
1
0
ENDSEC
0
SECTION
2
OBJECTS
0
DICTIONARY
5
C
100
AcDbDictionary
3
ACAD_GROUP
350
D
3
ACAD_MLINESTYLE
350
17
0
DICTIONARY
5
D
100
AcDbDictionary
0
DICTIONARY
5
1A
330
C
100
AcDbDictionary
0
DICTIONARY
5
17
100
AcDbDictionary
0
ENDSEC
0
EOF
